<?xml version="1.0" encoding="utf-8"?>
<!-- Generator: Adobe Illustrator 27.5.0, SVG Export Plug-In . SVG Version: 6.00 Build 0)  -->
<svg version="1.1" xmlns="http://www.w3.org/2000/svg" xmlns:xlink="http://www.w3.org/1999/xlink" x="0px" y="0px"
	 viewBox="0 0 500 500" style="enable-background:new 0 0 500 500;" xml:space="preserve">
<g id="Floor">
	<ellipse id="Floor_3_" style="fill:#F5F5F5;" cx="249.026" cy="368.25" rx="228.44" ry="118.952"/>
</g>
<g id="Shadows">
	<ellipse id="Shadow_8_" style="fill:#E6E6E6;" cx="395.38" cy="348.612" rx="60.93" ry="35.178"/>
	<g id="Shadow_21_">
		<path id="Shadow_16_" style="fill:#E6E6E6;" d="M149.987,327.732c23.313,13.46,24.259,35.681,0.946,49.141
			c-23.313,13.46-62.058,13.062-85.371-0.398c-23.313-13.46-23.313-35.283,0-48.743C88.876,314.272,126.674,314.272,149.987,327.732
			z"/>
		<path id="Shadow_3_" style="fill:#E6E6E6;" d="M340.139,400.261l-76.52-44.179c-2.391-1.381-6.269-1.381-8.66,0l-76.519,44.179
			c-2.391,1.381-2.391,3.619,0,5l34.852,20.122l-32.55,18.782c-6.611,3.817-17.371,3.814-23.983-0.003l-51.198-29.56
			c-2.825-1.631-4.381-3.679-4.381-5.767c0-2.089,1.556-4.138,4.381-5.768l45.371-26.195c0.957-0.553,1.284-1.775,0.732-2.732
			c-0.554-0.956-1.776-1.285-2.732-0.732l-45.371,26.195c-4.115,2.376-6.381,5.655-6.381,9.233c0,3.577,2.267,6.855,6.381,9.232
			l51.198,29.56c3.924,2.266,8.959,3.397,13.994,3.397c5.033,0,10.066-1.132,13.988-3.395l34.551-19.937l37.666,21.747
			c2.391,1.381,6.269,1.381,8.66,0l76.52-44.179C342.53,403.88,342.53,401.642,340.139,400.261z"/>
	</g>
</g>
<g id="Character_2">
	<g id="Character_18_">
		<g id="Bottom">
			<path style="fill:#FFA8A7;" d="M427.583,332.089c0,0,2.777-41.177,1.959-56.364c-0.648-12.033-2.283-16.992-2.624-19.706
				c0,0-2.947-28.053-3.19-51.891c-0.117-11.473-1.18-19.641-7.465-33.281l-40.434,9.673c-0.822,6.058-3.6,46.359-4.255,82.191
				c-0.574,31.367,0.32,58.832,0.32,58.832l0.041,1.651c0,1.833-0.402,3.114-1.581,6.056c-1.194,2.98-3.373,7.245-6.262,10.361
				c-0.832,0.898-6.598,5.942-7.359,7.018c-2.477,2.89,2.654,4.517,6.465,4.009c4.021-0.536,10.267-2.064,12.037-4.513
				c1.18-1.631,2.066-7.345,3.28-8.999c4.09-5.576,5.77-7.974,5.8-9.756c0.054-3.219-1.053-4.493-1.448-6.311
				c0.329-3.798,8.531-35.054,8.673-46.118c0.068-5.272-0.288-12.534-0.288-12.534l6.365-36.518
				c2.459,9.117,6.778,31.767,8.232,40.456c1.777,10.616,6.408,37.873,9.143,54.136c1.055,6.273,1.546,9.44,2.027,12.346
				c0.002,0.013,0.119,1.233,0.119,1.246c0.086,1.572,1.235,18.479,1.856,22.018c1.299,7.393,7.871,6.462,8.923,0.483
				c0.895-5.088-0.226-20.842-0.25-22.774L427.583,332.089z"/>
			<path id="XMLID_1116_" style="fill:#37474F;" d="M427.583,332.09c1.854,0.031,0.635,7.208,1.114,11.824
				c0.513,4.949,2.135,8.563,2.599,12.621c0.53,4.636,0.117,6.578-1.545,10.389c-1.293,2.964-7.79,7.027-10.255,2.787
				c-2.495-4.29-3.001-9.08-2.717-13.697c0.293-4.772,0-7.725,0.097-11.354c0.085-3.199-2.261-11.374,0.141-11.833l0.119,1.246
				c0.863,1.724,9.644,2.068,10.529-0.273L427.583,332.09z"/>
			<g id="XMLID_1109_">
				<g id="XMLID_1110_">
					<path id="XMLID_1114_" style="fill:#263238;" d="M384.703,331.266c0.567,2.313-0.021,8.653-0.021,8.653
						s-1.001,2.187-4.569,3.643l-1.601-8.819L384.703,331.266z"/>
					<polygon id="XMLID_1113_" points="380.113,343.562 372.247,340.979 370.352,333.998 379.189,338.472 					"/>
					<path id="XMLID_1111_" style="fill:#37474F;" d="M371.934,323.195l-0.041-1.651c-1.068,0.519-3.42,9.124-6.599,15.025
						c-2.903,5.389-8.656,8.392-10.523,10.737c-2.499,3.137,2.358,7.181,10.153,5.514c3.869-0.828,9.727-3.302,11.316-5.913
						c1.588-2.611,2.126-7.406,3.424-9.325c1.299-1.919,4.385-4.13,5.04-6.315c0.36-1.201,0.648-3.864-0.017-6.031
						c-0.61-1.988-1.144-4.393-1.822-4.176l-0.046,1.512c-0.522,1.064-2.405,2.302-6.341,2.515
						C374.605,325.187,372.791,324.9,371.934,323.195z"/>
				</g>
			</g>
			<path style="fill:#455A64;" d="M375.055,180.03c0,0-2.673,29.666-3.534,55.943c-0.861,26.277-0.091,60.17-0.091,60.17
				s2.712,1.94,8.683,2.207c5.97,0.268,8.036-1.723,8.036-1.723s3.647-11.906,4.218-20.286c0.571-8.38,0-13.631,0-13.631
				l5.332-35.057c0,0,6.759,34.516,7.526,38.69c0.767,4.174,7.247,41.051,7.247,41.051s2.543,2.348,9.062,2.224
				c5.762-0.11,7.438-2.177,7.438-2.177s1.388-22.619,1.072-32.283c-0.279-8.516-2.224-15.301-2.613-20.824
				c-0.389-5.523-0.616-36.988-1.005-48.966c-0.389-11.978-1.465-22.388-11.7-36.803L375.055,180.03z"/>
			<path style="fill:#37474F;" d="M397.699,227.654l-4.434-21.961c0,0-7.738-2.02-11.343-6.744c0,0,1.003,5.238,8.955,8.587
				l4.72,21.881l-1.604,22.606L397.699,227.654z"/>
		</g>
		<g id="Top">
			<g>
				<path style="fill:#FFA8A7;" d="M318.562,174.534c4.078,0.826,8.508-0.63,8.508-0.63c-1.521-0.858-2.704-1.563-3.369-2.234
					c-1.323-1.332-0.863-2.717-0.397-3.222c0.362-0.393,1.283,0.533,3.365,1.123c2.659,0.754,4.587,0.908,7.153,2.388
					c0.956,0.551,2.093,0.772,3.199,0.563c6.244-1.177,20.794-7.991,27.456-11.564c1.367-5.544,3.721-13.71,6.636-23.885
					c2.688-9.381,7.008-13.486,13.874-13.329l-0.95,20.365c0,0-3.276,14.072-7.335,25.558c-0.715,2.023-3.561,4.337-8.779,6.275
					c-6.759,2.511-14.921,4.875-24.891,7.604c-3.727,1.02-8.654,2.092-12.381,2.41c-10.541,0.9-14.579-2.031-16.018-4.073
					C310.613,176.18,313.036,173.415,318.562,174.534z"/>
				<path id="XMLID_1106_" style="fill:#27DEBF;" d="M402.722,123.588l9.619,0.746c-2.618,14.026,7.237,21.533,7.237,21.533
					l-4.29,17.287c0.142,2.134,3.685,9.334,7.116,17.081c-6.452,8.637-38.093,11.586-48.412,4.006
					c1.592-8.141,2.781-14.326,3.096-17.412l-0.523-11.169c-12.932-10.614,2.677-26.776,8.421-31.916l7.224-0.322L402.722,123.588z"
					/>
			</g>
			<g>
				<path style="fill:#F28F8F;" d="M443.229,209.677c-1.407-0.975-2.221-3.02-2.055-4.634c0.165-1.614,0.539-3.635,1.201-4.416
					c0.662-0.78,4.872-6.486,6.734-3.165c2.032,3.623,1.592,5.085,1.592,5.085L443.229,209.677z"/>
				<g>
					<path style="fill:#37474F;" d="M430.275,285.993c-3.962,0-8.301-1.296-12.753-3.866L367.594,253.3
						c-7.714-4.454-13.99-15.325-13.99-24.232l-0.001-41.887c0-2.882-1.49-5.463-3.986-6.905c-2.495-1.44-5.477-1.441-7.974-0.001
						L324.107,190.4c-0.958,0.553-2.181,0.224-2.732-0.732c-0.552-0.957-0.225-2.18,0.732-2.732l17.536-10.124
						c3.748-2.165,8.225-2.165,11.974,0c3.748,2.164,5.986,6.041,5.986,10.369l0.001,41.887c0,7.505,5.491,17.016,11.99,20.768
						l49.928,28.826c6.39,3.69,12.314,4.332,16.678,1.814c4.365-2.521,6.769-7.972,6.769-15.35V211.65
						c0-9.059,5.792-19.498,13.186-23.768l12.186-7.036c0.955-0.555,2.179-0.225,2.732,0.732c0.552,0.957,0.225,2.18-0.732,2.732
						l-12.186,7.036c-6.063,3.501-11.186,12.799-11.186,20.304v53.476c0,8.867-3.114,15.549-8.769,18.814
						C435.824,285.311,433.148,285.993,430.275,285.993z"/>
				</g>
				<g id="Plug">
					<g>
						<path style="fill:#37474F;" d="M343.971,193.29v3.271c0,5.233-3.674,11.596-8.206,14.213l-30.287,17.486l-30.789-17.779
							l-0.007-26.662l29.895-13.808c4.751-2.194,12.276-1.852,16.808,0.764l14.38,8.302
							C340.297,181.694,343.971,188.057,343.971,193.29z"/>
						<path style="fill:#455A64;" d="M304.577,170.01c4.751-2.194,12.276-1.852,16.808,0.764l14.38,8.302
							c4.532,2.617,4.354,6.517-0.397,8.711l-29.887,13.804l-30.798-17.773L304.577,170.01z"/>
						<path style="opacity:0.15;" d="M308.387,195.176c2.266,1.308,4.103,4.49,4.103,7.107v21.929l-7.013,4.049l-30.788-17.779
							l-0.007-26.662l7.796-3.601L308.387,195.176z"/>
						<g>
							<path style="fill:#37474F;" d="M272.066,179.228c0.737-0.425,1.754-0.364,2.881,0.286l30.283,17.484
								c2.266,1.308,4.103,4.49,4.103,7.107v26.08c0,1.31-0.462,2.224-1.208,2.647c-0.692,0.392-3.166,1.82-3.851,2.223
								c-0.738,0.435-1.761,0.378-2.897-0.277l-30.283-17.484c-2.266-1.308-4.103-4.49-4.103-7.107v-26.08
								c0-1.302,0.455-2.227,1.192-2.652C268.878,181.056,271.372,179.629,272.066,179.228z"/>
							<path style="fill:#455A64;" d="M301.378,199.223l-30.284-17.484c-2.266-1.308-4.103-0.248-4.103,2.369v26.08
								c0,2.617,1.837,5.798,4.103,7.107l30.283,17.484c2.266,1.308,4.103,0.248,4.103-2.369l0-26.08
								C305.481,203.713,303.644,200.531,301.378,199.223z"/>
						</g>
						<g>
							<path style="fill:#27DEBF;" d="M265.51,229.577l0.001,4.512c0,1.83,0.634,3.105,1.667,3.699
								c0.46,0.265,2.265,1.307,2.727,1.577c1.043,0.608,2.486,0.532,4.074-0.385l25.047-14.461l-0.003-17.778l-2.723-1.574
								l-25.047,14.461C268.081,221.46,265.509,225.914,265.51,229.577z M276.842,223.963c0.084,0.316,0.141,0.676,0.141,1.07
								c0,2.455-1.723,5.439-3.849,6.667c-0.342,0.198-0.668,0.318-0.984,0.403c-0.083-0.316-0.142-0.657-0.142-1.052
								c0-2.455,1.723-5.44,3.849-6.667C276.198,224.187,276.526,224.049,276.842,223.963z"/>
							<path style="opacity:0.2;" d="M269.756,239.263c0.058,0.039,0.113,0.082,0.176,0.116c-0.01,0-0.01-0.01-0.02-0.01
								c-0.03-0.02-0.07-0.04-0.1-0.06c-0.6-0.35-2.21-1.28-2.63-1.53c-1.05-0.58-1.67-1.85-1.67-3.69v-4.51
								c0-1.84,0.64-3.87,1.69-5.67l2.72,1.57c-1.04,1.82-1.68,3.83-1.68,5.67v4.51c0,1.43,0.39,2.52,1.05,3.22
								C269.425,239.031,269.588,239.152,269.756,239.263z"/>
							<path style="opacity:0.5;fill:#FFFFFF;" d="M299.012,206.739l-25.03,14.46c-1.59,0.92-3.02,2.48-4.06,4.28l-2.72-1.57
								c1.04-1.8,2.47-3.36,4.05-4.28l25.05-14.46L299.012,206.739z"/>
							<path style="opacity:0.5;fill:#FFFFFF;" d="M270.042,239.449c-0.02-0.01-0.05-0.03-0.07-0.04c0.01,0,0.03,0.01,0.05,0.02
								C270.031,239.439,270.031,239.449,270.042,239.449z"/>
							<path style="opacity:0.2;" d="M270.022,239.429c-0.02-0.01-0.04-0.02-0.05-0.02c-0.02-0.01-0.03-0.02-0.04-0.03
								C269.961,239.399,269.991,239.409,270.022,239.429z"/>
							<path style="opacity:0.2;" d="M276.976,225.028c0-0.398-0.059-0.762-0.134-1.065l0,0c1.645-0.458,2.863,0.577,2.863,2.638
								c0,2.464-1.725,5.439-3.847,6.671c-1.781,1.042-3.297,0.493-3.714-1.175c0.322-0.076,0.644-0.189,0.985-0.398
								C275.251,230.467,276.976,227.491,276.976,225.028z"/>
						</g>
						<g>
							<path style="fill:#27DEBF;" d="M242.418,216.243l0.001,4.512c0,1.83,0.634,3.105,1.667,3.699
								c0.46,0.265,2.265,1.307,2.727,1.577c1.043,0.608,2.486,0.532,4.074-0.385l25.048-14.461l-0.003-17.778l-2.723-1.574
								l-25.047,14.461C244.989,208.126,242.417,212.58,242.418,216.243z M253.75,210.629c0.084,0.316,0.141,0.676,0.141,1.07
								c0,2.455-1.723,5.439-3.849,6.667c-0.342,0.198-0.668,0.318-0.984,0.403c-0.083-0.316-0.142-0.657-0.142-1.052
								c0-2.455,1.723-5.439,3.849-6.667C253.107,210.853,253.434,210.715,253.75,210.629z"/>
							<path style="opacity:0.2;" d="M246.931,226.099c-0.02-0.01-0.03-0.02-0.05-0.02c-0.02-0.02-0.05-0.03-0.07-0.04
								c-0.47-0.28-2.27-1.33-2.72-1.59c-1.05-0.59-1.67-1.86-1.67-3.7v-4.51c0-0.92,0.16-1.88,0.45-2.84
								c0.29-0.96,0.71-1.92,1.23-2.82l0.01,0.01l2.72,1.56c0,0,0,0.01-0.01,0.01c-0.26,0.45-0.49,0.91-0.69,1.38
								c-0.62,1.42-0.98,2.9-0.98,4.28v4.51c0,1.42,0.39,2.52,1.05,3.22C246.411,225.769,246.661,225.959,246.931,226.099z"/>
							<path style="opacity:0.5;fill:#FFFFFF;" d="M275.921,193.409l-25.03,14.46c-1.6,0.92-3.02,2.48-4.06,4.28l-2.72-1.56
								c1.04-1.81,2.47-3.38,4.05-4.3l25.05-14.46L275.921,193.409z"/>
							<path style="opacity:0.5;fill:#FFFFFF;" d="M246.951,226.119c-0.02-0.01-0.04-0.02-0.07-0.04c0.02,0,0.03,0.01,0.05,0.02
								C246.941,226.109,246.941,226.119,246.951,226.119z"/>
							<path style="opacity:0.2;" d="M253.884,211.694c0-0.398-0.059-0.762-0.135-1.065l0,0c1.645-0.458,2.863,0.578,2.863,2.638
								c0,2.464-1.725,5.439-3.847,6.671c-1.781,1.042-3.297,0.493-3.714-1.175c0.322-0.076,0.645-0.189,0.985-0.398
								C252.16,217.133,253.884,214.158,253.884,211.694z"/>
						</g>
					</g>
				</g>
				<g>
					
						<line style="fill:none;stroke:#E0E0E0;stroke-width:3;stroke-linecap:round;stroke-linejoin:round;stroke-miterlimit:10;" x1="249.99" y1="198.049" x2="245.962" y2="182.368"/>
					
						<line style="fill:none;stroke:#E0E0E0;stroke-width:3;stroke-linecap:round;stroke-linejoin:round;stroke-miterlimit:10;" x1="238.743" y1="204.591" x2="223.846" y2="192.822"/>
					
						<line style="fill:none;stroke:#E0E0E0;stroke-width:3;stroke-linecap:round;stroke-linejoin:round;stroke-miterlimit:10;" x1="235.631" y1="217.602" x2="218.223" y2="218.952"/>
				</g>
				<path style="fill:#FFA8A7;" d="M456.841,193.359c-0.392-3.006-0.719-7.274-1.64-11.005c-2.326-9.424-7.392-21.622-9.06-24.815
					c-1.668-3.193-5.44-7.841-8.113-11.768c-3.779-5.553-6.434-8.666-9.309-12.432c-6.315-8.274-9.005-8.744-16.379-9.005
					c-0.997,2.629-3.28,13.408,4.105,22.121l15.845,16.7c0.898,1.45,10.578,17.995,12.189,24.108
					c0.286,1.083,0.131,2.233-0.376,3.232c-1.36,2.68-2.167,6.044-2.773,8.754c-0.475,2.122-1.73,3.801-1.303,4.128
					c0.55,0.419,1.907,0.938,3.509-0.281c0.771-0.587,1.946-2.527,2.732-4.113c1.33,0.006,2.187,0.777,2.288,2.184
					c0.088,1.231-0.47,2.947-0.892,5.079c-0.082,0.412-0.183,0.892-0.378,2.053c-0.131,0.632-0.259,1.473-0.274,2.383
					c2.018,0.374,4.083-0.853,7.444-4.038C457.494,203.765,457.694,199.898,456.841,193.359z"/>
			</g>
			<g id="XMLID_376_">
				<path style="fill:#263238;" d="M404.443,118.731c0.053-1.972,6.559-6.685,9.849-11.663c3.048-4.613,7.309-17.315-2.788-21.376
					c0,0,2.172-6.095-1.781-9.681c-3.953-3.585-9.292-1.375-10.133,0.13c0,0-1.471-6.308-8.456-6.645
					c-6.985-0.337-8.281,6.178-8.281,6.178s-5.517-2.529-9.218,2.579c-3.701,5.108,1.214,9.79,1.214,9.79s-2.22,1.401-1.881,3.902
					c0.294,2.163,2.361,2.697,2.606,3.771c0.245,1.075-1.116,1.708-1.815,0.942c0,0,0.227,1.854,2.561,1.727
					c2.334-0.127,4.408-3.293,4.408-3.293L404.443,118.731z"/>
				<path id="XMLID_1104_" style="fill:#FFA8A7;" d="M383.237,85.053c-2.988,1.295-5.827,5.864-5.784,18.646
					c0.037,10.834,3.358,13.574,5.037,14.378c1.678,0.804,4.952,0.398,8.138-0.092l-0.012,6.228c0,0-5.761,7.155-0.596,10.714
					c13.318-2.33,14.345-11.068,14.345-11.068l0.235-13.58c0,0,1.833,1.925,5.055-0.897c2.66-2.33,3.617-6.327,1.62-8.52
					c-1.997-2.193-4.565-2.37-6.881,0.081c0,0-4.251,0.272-10.638-3.739C387.216,93.099,384.987,89.133,383.237,85.053z"/>
				<g id="XMLID_459_">
					<path id="XMLID_465_" style="fill:#B16668;" d="M390.915,110.482c0.032,0.885-0.632,1.626-1.484,1.655
						c-0.852,0.029-1.569-0.666-1.601-1.551c-0.033-0.886,0.632-1.626,1.484-1.655C390.165,108.903,390.883,109.597,390.915,110.482
						z"/>
				</g>
				<g id="XMLID_463_">
					<path id="XMLID_464_" style="fill:#263238;" d="M382.676,100.018c0.03,0.824-0.589,1.515-1.383,1.541
						c-0.794,0.027-1.462-0.62-1.492-1.445c-0.03-0.825,0.589-1.515,1.383-1.542C381.978,98.546,382.646,99.194,382.676,100.018z"/>
				</g>
				<g id="XMLID_460_">
					<path id="XMLID_461_" style="fill:#263238;" d="M393.753,100.66c0.032,0.885-0.632,1.626-1.484,1.655s-1.569-0.666-1.601-1.551
						c-0.033-0.886,0.632-1.626,1.484-1.655C393.004,99.081,393.721,99.775,393.753,100.66z"/>
				</g>
				<path id="XMLID_458_" style="fill:#263238;" d="M381.678,94.273l-3.049,1.784c0.439,0.898,1.558,1.144,2.4,0.651
					C381.871,96.216,382.118,95.171,381.678,94.273z"/>
				<path id="XMLID_457_" style="fill:#263238;" d="M404.37,99.177l-0.037,6.018c-1.61,0.054-2.906-1.25-2.896-2.912
					C401.448,100.622,402.762,99.231,404.37,99.177z"/>
				<polygon id="XMLID_456_" style="fill:#F28F8F;" points="386.622,98.572 386.006,107.208 381.453,106.141 				"/>
				<path id="XMLID_449_" style="fill:#F28F8F;" d="M390.627,117.985c3.354-0.392,10.275-2.318,11.401-5.13
					c0,0-0.391,1.773-2.481,3.569c-2.091,1.794-8.924,3.657-8.924,3.657L390.627,117.985z"/>
			</g>
		</g>
		<g id="Question_Marks">
			<g>
				<path style="fill:#27DEBF;" d="M430.904,51.181c1.285,0.484,2.468,1.132,3.549,1.945c1.082,0.813,1.964,1.745,2.644,2.797
					c0.681,1.051,1.115,2.197,1.302,3.439c0.188,1.24,0.03,2.53-0.475,3.869c-0.411,1.093-0.94,1.979-1.584,2.656
					c-0.646,0.677-1.356,1.237-2.13,1.678c-0.774,0.441-1.577,0.81-2.406,1.106c-0.83,0.297-1.615,0.578-2.354,0.844
					c-0.741,0.268-1.421,0.582-2.039,0.941c-0.62,0.36-1.082,0.825-1.391,1.395c-0.169,0.28-0.389,0.493-0.662,0.639
					c-0.274,0.148-0.561,0.163-0.861,0.051l-3.115-1.174c-0.301-0.113-0.527-0.322-0.676-0.628c-0.15-0.306-0.155-0.603-0.014-0.894
					c0.456-1.045,1.033-1.897,1.733-2.554c0.7-0.656,1.45-1.201,2.252-1.632c0.802-0.431,1.622-0.785,2.46-1.062
					c0.837-0.278,1.619-0.552,2.346-0.825c0.726-0.272,1.357-0.581,1.892-0.925c0.536-0.344,0.911-0.804,1.128-1.378
					c0.391-1.038,0.276-2.057-0.347-3.056c-0.622-0.998-1.658-1.771-3.106-2.316c-2.322-0.875-4.468-0.356-6.435,1.555
					c-0.25,0.249-0.478,0.42-0.684,0.514c-0.208,0.094-0.489,0.074-0.845-0.06l-3.319-1.25c-0.245-0.093-0.427-0.255-0.542-0.485
					c-0.116-0.231-0.122-0.483-0.02-0.756c0.387-0.946,1.049-1.812,1.985-2.598c0.935-0.787,2.027-1.405,3.272-1.856
					c1.247-0.45,2.603-0.697,4.069-0.737C428,50.384,429.456,50.635,430.904,51.181z M423.778,75.078
					c0.3,0.113,0.518,0.32,0.654,0.621c0.137,0.301,0.148,0.601,0.035,0.902l-1.358,3.606c-0.113,0.302-0.32,0.52-0.621,0.655
					c-0.301,0.137-0.601,0.148-0.901,0.035l-3.525-1.327c-0.301-0.114-0.52-0.32-0.656-0.622c-0.137-0.301-0.148-0.601-0.035-0.902
					l1.358-3.607c0.113-0.3,0.32-0.519,0.621-0.655c0.302-0.135,0.601-0.148,0.903-0.034L423.778,75.078z"/>
			</g>
			<g>
				<g>
					<path style="fill:#27DEBF;" d="M432.634,94.278c0.219,0.209,0.333,0.469,0.341,0.78c0.007,0.311-0.093,0.577-0.301,0.796
						l-2.503,2.632c-0.209,0.22-0.469,0.334-0.78,0.341c-0.311,0.008-0.577-0.092-0.796-0.301l-2.572-2.446
						c-0.22-0.209-0.333-0.468-0.341-0.779c-0.008-0.312,0.092-0.577,0.301-0.796l2.503-2.633c0.208-0.219,0.467-0.333,0.78-0.341
						c0.31-0.008,0.575,0.092,0.795,0.301L432.634,94.278z M447.593,76.149c0.937,0.89,1.727,1.888,2.367,2.99
						c0.64,1.104,1.065,2.236,1.268,3.399c0.205,1.163,0.161,2.317-0.132,3.463c-0.292,1.147-0.903,2.208-1.832,3.186
						c-0.758,0.798-1.542,1.372-2.35,1.723c-0.809,0.352-1.631,0.577-2.465,0.676c-0.835,0.099-1.667,0.125-2.494,0.079
						c-0.83-0.048-1.614-0.092-2.355-0.132c-0.74-0.04-1.446-0.017-2.115,0.069c-0.67,0.085-1.243,0.319-1.72,0.7
						c-0.249,0.181-0.518,0.285-0.81,0.312c-0.292,0.027-0.546-0.064-0.766-0.272l-2.274-2.162
						c-0.219-0.208-0.339-0.473-0.356-0.794c-0.018-0.321,0.087-0.581,0.316-0.782c0.781-0.74,1.593-1.267,2.443-1.58
						c0.848-0.313,1.699-0.51,2.555-0.59c0.853-0.08,1.695-0.087,2.525-0.019c0.828,0.066,1.608,0.114,2.339,0.145
						c0.73,0.031,1.39-0.006,1.983-0.108c0.59-0.103,1.086-0.363,1.484-0.782c0.72-0.758,0.993-1.684,0.82-2.78
						c-0.174-1.095-0.789-2.145-1.845-3.15c-1.696-1.612-3.749-1.95-6.158-1.013c-0.309,0.125-0.57,0.19-0.783,0.196
						c-0.215,0.005-0.451-0.115-0.71-0.361l-2.423-2.305c-0.18-0.17-0.277-0.377-0.293-0.62c-0.016-0.244,0.072-0.464,0.26-0.663
						c0.683-0.68,1.575-1.189,2.677-1.528c1.102-0.339,2.275-0.476,3.523-0.41c1.246,0.066,2.514,0.349,3.802,0.853
						C445.363,74.389,446.535,75.143,447.593,76.149z"/>
				</g>
				<g style="opacity:0.6;">
					<path style="fill:#FFFFFF;" d="M432.634,94.278c0.219,0.209,0.333,0.469,0.341,0.78c0.007,0.311-0.093,0.577-0.301,0.796
						l-2.503,2.632c-0.209,0.22-0.469,0.334-0.78,0.341c-0.311,0.008-0.577-0.092-0.796-0.301l-2.572-2.446
						c-0.22-0.209-0.333-0.468-0.341-0.779c-0.008-0.312,0.092-0.577,0.301-0.796l2.503-2.633c0.208-0.219,0.467-0.333,0.78-0.341
						c0.31-0.008,0.575,0.092,0.795,0.301L432.634,94.278z M447.593,76.149c0.937,0.89,1.727,1.888,2.367,2.99
						c0.64,1.104,1.065,2.236,1.268,3.399c0.205,1.163,0.161,2.317-0.132,3.463c-0.292,1.147-0.903,2.208-1.832,3.186
						c-0.758,0.798-1.542,1.372-2.35,1.723c-0.809,0.352-1.631,0.577-2.465,0.676c-0.835,0.099-1.667,0.125-2.494,0.079
						c-0.83-0.048-1.614-0.092-2.355-0.132c-0.74-0.04-1.446-0.017-2.115,0.069c-0.67,0.085-1.243,0.319-1.72,0.7
						c-0.249,0.181-0.518,0.285-0.81,0.312c-0.292,0.027-0.546-0.064-0.766-0.272l-2.274-2.162
						c-0.219-0.208-0.339-0.473-0.356-0.794c-0.018-0.321,0.087-0.581,0.316-0.782c0.781-0.74,1.593-1.267,2.443-1.58
						c0.848-0.313,1.699-0.51,2.555-0.59c0.853-0.08,1.695-0.087,2.525-0.019c0.828,0.066,1.608,0.114,2.339,0.145
						c0.73,0.031,1.39-0.006,1.983-0.108c0.59-0.103,1.086-0.363,1.484-0.782c0.72-0.758,0.993-1.684,0.82-2.78
						c-0.174-1.095-0.789-2.145-1.845-3.15c-1.696-1.612-3.749-1.95-6.158-1.013c-0.309,0.125-0.57,0.19-0.783,0.196
						c-0.215,0.005-0.451-0.115-0.71-0.361l-2.423-2.305c-0.18-0.17-0.277-0.377-0.293-0.62c-0.016-0.244,0.072-0.464,0.26-0.663
						c0.683-0.68,1.575-1.189,2.677-1.528c1.102-0.339,2.275-0.476,3.523-0.41c1.246,0.066,2.514,0.349,3.802,0.853
						C445.363,74.389,446.535,75.143,447.593,76.149z"/>
				</g>
			</g>
		</g>
	</g>
</g>
<g id="Character_1">
	<g id="Character_6_">
		<g id="Bottom_1_">
			<g>
				<path id="XMLID_542_" style="fill:#FFA8A7;" d="M76.813,345.71c3.171,1.928,7.38,2.012,11.351,0.611l3.047-20.966l-14.051-3.588
					L76.813,345.71z"/>
				<g>
					<path id="XMLID_535_" style="fill:#263238;" d="M99.404,365.811c0.341,0.357,0.131,2.985-0.299,3.586
						c-0.461,0.645-2.84,2.59-7.271,2.669c-4.233,0.075-7.969-0.696-10.36-2.402c-2.391-1.705-3.497-3.504-3.601-5.919
						c-0.104-2.415,0.288-4.718-0.758-6.629c-0.966-1.764-2.288-3.504-2.606-4.449c-0.69-2.057-0.024-5.17-0.024-5.17
						L99.404,365.811z"/>
					<path id="XMLID_534_" style="fill:#27DEBF;" d="M89.134,345.436c0.023,0.895,0.126,1.789,0.371,2.699
						c0.511,1.896,1.346,3.699,2.299,5.423c0.491,0.888,1.013,1.762,1.625,2.576c1.194,1.586,2.711,2.918,3.983,4.447
						c1.272,1.529,2.325,3.356,2.326,5.317c0.002,3.318-3.649,4.249-6.439,4.592c-2.98,0.367-6.122,0.04-8.958-0.934
						c-3.156-1.083-5.335-3.691-5.695-6.917c-0.103-0.927,0.004-1.863-0.055-2.793c-0.134-2.122-1.122-4.106-2.261-5.926
						c-0.66-1.055-1.385-2.09-1.804-3.256c-0.753-2.094,0.063-4.361,0.724-6.37c0.571-1.736,1.026-3.829,1.637-3.629
						c-0.016,0.355-0.016,1.132-0.016,1.132c0.183,0.394,0.624,0.677,0.728,1.13c0.109,0.473,0.237,0.943,0.429,1.389
						c0.293,0.681,0.745,1.316,1.381,1.699c0.109-1.247,0.217-2.493,0.326-3.74c0.033-0.386,0.081-0.803,0.347-1.084
						c0.27-0.285,0.692-0.352,1.081-0.403c2.36-0.309,4.764-0.617,7.108-0.205c0.352,0.062,0.737,0.165,0.928,0.467
						c0.156,0.247,0.136,0.563,0.112,0.854C89.209,343.107,89.104,344.272,89.134,345.436z"/>
					<path id="XMLID_531_" style="opacity:0.2;" d="M89.134,345.436c0.023,0.895,0.126,1.789,0.371,2.699
						c0.511,1.896,1.346,3.699,2.299,5.423c0.491,0.888,1.013,1.762,1.625,2.576c1.194,1.586,2.711,2.918,3.983,4.447
						c1.272,1.529,2.325,3.356,2.326,5.317c0.002,3.318-3.649,4.249-6.439,4.592c-2.98,0.367-6.122,0.04-8.958-0.934
						c-3.156-1.083-5.335-3.691-5.695-6.917c-0.103-0.927,0.004-1.863-0.055-2.793c-0.134-2.122-1.122-4.106-2.261-5.926
						c-0.66-1.055-1.385-2.09-1.804-3.256c-0.753-2.094,0.063-4.361,0.724-6.37c0.571-1.736,1.026-3.829,1.637-3.629
						c-0.016,0.355-0.016,1.132-0.016,1.132c0.183,0.394,0.624,0.677,0.728,1.13c0.109,0.473,0.237,0.943,0.429,1.389
						c0.293,0.681,0.745,1.316,1.381,1.699c0.109-1.247,0.217-2.493,0.326-3.74c0.033-0.386,0.081-0.803,0.347-1.084
						c0.27-0.285,0.692-0.352,1.081-0.403c2.36-0.309,4.764-0.617,7.108-0.205c0.352,0.062,0.737,0.165,0.928,0.467
						c0.156,0.247,0.136,0.563,0.112,0.854C89.209,343.107,89.104,344.272,89.134,345.436z"/>
					<path id="XMLID_525_" style="fill:#455A64;" d="M92.213,354.276c-1.182-0.989-3.941-1.15-5.459-1.069
						c-1.901,0.101-3.467,0.681-4.371,1.275c-0.401,0.263-0.937,0.185-1.257-0.168l0,0c-0.386-0.424-0.313-1.085,0.169-1.401
						c0.957-0.628,2.675-1.492,4.923-1.529c3.728-0.062,4.783,0.633,4.783,0.633S92.636,353.2,92.213,354.276z"/>
					<path id="XMLID_522_" style="fill:#455A64;" d="M94.863,357.818c-1.5-0.999-4.542-1.03-6.06-0.95
						c-1.901,0.101-3.354,0.768-4.257,1.362c-0.4,0.263-0.937,0.185-1.258-0.168l0,0c-0.386-0.424-0.313-1.085,0.169-1.401
						c0.957-0.628,2.787-1.628,5.035-1.665c3.728-0.062,4.655,0.749,4.655,0.749S94.68,356.436,94.863,357.818z"/>
					<path id="XMLID_513_" style="fill:#455A64;" d="M84.93,347.751c2.581-0.127,3.653,0.219,4.647,0.643
						c0.635,0.402,1.01,1.459,0.575,1.698c-0.802-0.503-2.28-0.774-4.108-0.791c-1.227-0.011-2.795,0.401-4.076,0.887
						c-0.325,0.124-0.712,0.302-1.051,0.466c-0.457,0.223-1.013,0.017-1.202-0.445l0,0c-0.16-0.392-0.001-0.841,0.379-1.044
						C81.023,348.67,82.845,347.853,84.93,347.751z"/>
				</g>
			</g>
			<g>
				<path id="XMLID_538_" style="fill:#FFA8A7;" d="M116.269,337.823c2.437,6.112,6.261,4.227,12.077,0.71l0.882-20.859
					l-14.81-1.372L116.269,337.823z"/>
				<g>
					<path id="XMLID_492_" style="fill:#263238;" d="M150.693,352.527c0.308,0.743,0.134,2.096-0.323,2.936
						c-0.458,0.839-5.094,3.134-11.141,2.399c-6.047-0.736-10.084-3.406-12.316-5.062c-2.232-1.657-4.625-2.073-7.622-2.406
						c-2.996-0.334-5.254-1.378-5.837-2.819c-0.584-1.441,0.305-3.821,0.305-3.821L150.693,352.527z"/>
					<path id="XMLID_489_" style="fill:#27DEBF;" d="M127.132,333.298c0.556-0.099,1.02-0.272,1.613-0.454
						c0.295-0.09,0.62-0.179,0.903-0.055c0.38,0.167,0.507,0.633,0.589,1.04c0.167,0.832,0.197,1.901,0.52,2.672
						c0.294,0.701,1.066,1.37,1.607,1.88c1.405,1.325,3.045,2.391,4.689,3.393c1.926,1.172,3.824,2.104,5.821,3.134
						c2.038,1.052,4.778,1.775,6.353,2.964c2.296,1.733,2.386,5.783-0.413,7.23c-2.415,1.248-8.654,2.406-15.016,0.228
						c-3.465-1.186-7.17-5.157-11.769-5.766c-2.925-0.388-6.827-0.845-8.598-3.177c-0.646-1.027-0.085-3.894,0.439-7.29
						c0.469-3.039,0.899-7.794,1.865-7.481c-0.004-0.001,0.079,0.921,0.079,0.921s0.879,1.064,1.165,1.413
						c0.252,0.307,0.544,0.503,0.821,0.776c0.356,0.35,0.642,0.749,1.035,1.065c0.485,0.389,1.071,0.68,1.693,0.705
						c0.294,0.012,0.597-0.038,0.853-0.184c0.498-0.286,0.564-0.941,0.968-1.348c0.459-0.464,1.028-0.821,1.634-1.061
						c0.846-0.335,1.751-0.467,2.652-0.54C126.812,333.348,126.976,333.326,127.132,333.298z"/>
					<path id="XMLID_488_" style="opacity:0.2;" d="M127.132,333.298c0.556-0.099,1.02-0.272,1.613-0.454
						c0.295-0.09,0.62-0.179,0.903-0.055c0.38,0.167,0.507,0.633,0.589,1.04c0.167,0.832,0.197,1.901,0.52,2.672
						c0.294,0.701,1.066,1.37,1.607,1.88c1.405,1.325,3.045,2.391,4.689,3.393c1.926,1.172,3.824,2.104,5.821,3.134
						c2.038,1.052,4.778,1.775,6.353,2.964c2.296,1.733,2.386,5.783-0.413,7.23c-2.415,1.248-8.654,2.406-15.016,0.228
						c-3.465-1.186-7.17-5.157-11.769-5.766c-2.925-0.388-6.827-0.845-8.598-3.177c-0.646-1.027-0.085-3.894,0.439-7.29
						c0.469-3.039,0.899-7.794,1.865-7.481c-0.004-0.001,0.079,0.921,0.079,0.921s0.879,1.064,1.165,1.413
						c0.252,0.307,0.544,0.503,0.821,0.776c0.356,0.35,0.642,0.749,1.035,1.065c0.485,0.389,1.071,0.68,1.693,0.705
						c0.294,0.012,0.597-0.038,0.853-0.184c0.498-0.286,0.564-0.941,0.968-1.348c0.459-0.464,1.028-0.821,1.634-1.061
						c0.846-0.335,1.751-0.467,2.652-0.54C126.812,333.348,126.976,333.326,127.132,333.298z"/>
					<path id="XMLID_479_" style="fill:#455A64;" d="M134.395,340.029c0,0-0.361-1.15-2.091-1.569
						c-1.323-0.321-3.737,0.538-5.269,1.667c-0.627,0.463-0.6,1.407,0.061,1.819l0,0c0.393,0.246,0.893,0.214,1.259-0.071
						C129.362,341.09,131.601,339.685,134.395,340.029z"/>
					<path id="XMLID_477_" style="fill:#455A64;" d="M138.413,342.572c0,0-0.791-1.396-2.499-1.462c0,0-3.496-0.087-5.764,1.81
						c-0.578,0.484-0.587,1.36,0.053,1.759l0,0c0.381,0.237,0.863,0.205,1.213-0.075
						C132.436,343.786,134.485,342.065,138.413,342.572z"/>
					<path id="XMLID_476_" style="fill:#455A64;" d="M142.874,344.909c0,0-0.896-1.273-2.605-1.339c0,0-3.258-0.054-5.527,1.844
						c-0.579,0.484-0.588,1.361,0.053,1.758l0,0c0.381,0.237,0.863,0.206,1.213-0.075
						C137.029,346.28,138.946,344.402,142.874,344.909z"/>
				</g>
			</g>
			<g id="XMLID_466_">
				<path style="fill:#455A64;" d="M76.415,289.41c0.451-10.065,2.593-15.313,2.897-18.103c0,0,0.822-55.392,2.168-72.206
					l49.601-2.109c0.732,17.956,1.392,66.364,1.007,72.76c-0.369,6.126-2.862,59.301-2.862,59.301
					c-7.014,2.184-14.467-0.965-14.467-0.965s-4.161-30.244-4.844-36.914c-0.884-8.634,0.468-18.009,0.468-18.009l-3.17-43.069
					c0,0-3.832,33.392-5.726,45.969c-2.17,14.411-11.463,59.076-11.463,59.076c-6.692,1.675-13.212-1.218-13.212-1.218
					S75.762,304.005,76.415,289.41z"/>
				<path id="XMLID_469_" style="fill:#37474F;" d="M107.213,230.095l0.938-5.932c2.89-0.429,10.206-5,14.541-8.993
					c0,0-3.917,6.639-12.161,11.208l-0.147,46.786L107.213,230.095z"/>
			</g>
		</g>
		<g id="Top_1_">
			<g>
				<path style="fill:#FFA8A7;" d="M127.55,167.811c-3.375-7.692-9.169-20.643-9.169-20.643l-1.475-21.047
					c0,0,3.285,0.085,6.411,0.573c3.125,0.488,8.069,3.47,10.337,9.086c1.684,4.171,10.465,29.615,10.465,29.615l15.303-8.065
					c3.916-2.493,5.304-6.615,7.807-8.958c2.503-2.343,5.032-2.741,7.767-4.65c2.735-1.908,3.869-3.44,4.564-1.534
					c0.696,1.905-2.401,4.841-2.96,5.574c-0.559,0.733-3.613,2.293,0.234,2.493c3.847,0.2,11.609-3.54,13.467-4.181
					c1.858-0.64,1.695,1.566,0.73,2.934c-0.965,1.368-1.072,5.392-2.693,7.649c-1.721,2.395-2.649,3.426-6.335,4.851
					c-3.434,1.328-10.539,1.662-14.203,3.777c-3.665,2.115-12.524,10.121-18.429,14.229c-7.93,5.516-12.394,5.877-15.499,1.479
					C130.767,176.593,128.738,170.519,127.55,167.811z"/>
				<path style="fill:#E0E0E0;" d="M114.841,125.722c5.194-0.399,11.325-0.08,14.722,3.021c2.704,2.468,3.723,4.046,6.745,12.533
					c2.04,5.731,6.277,18.929,6.277,18.929s-9,1.603-15.05,9.199l-9.746-21.91L114.841,125.722z"/>
				<path style="fill:#F28F8F;" d="M144.119,165.393c-3.388,1.214-5.653,3.592-6.466,4.963c0,0,0.365-4.023,5.974-6.386
					L144.119,165.393z"/>
			</g>
			<g id="XMLID_744_">
				<path id="XMLID_746_" style="fill:#F5F5F5;" d="M102.392,124.785c0,0-3.34-0.254-7.309,0.795
					c-4.57,1.208-12.761,3.507-12.761,3.507c-2.599,1.355-3.616,5.856-4.204,8.444c-1.882,8.285,3.043,27.036,3.755,34.292
					c0.713,7.255-0.845,29.622-0.845,29.622c5.592,6.474,35.877,10.773,50.628,0.001c0,0,0.642-51.27-0.812-58.631
					c-2.199-11.131-5.462-16.424-16.973-17.093L102.392,124.785z"/>
			</g>
			<g id="XMLID_546_">
				<g>
					<g id="XMLID_723_">
						<path id="XMLID_741_" style="fill:#263238;" d="M108.864,97.275l-3.291,1.816c-0.485-0.945-0.142-2.119,0.767-2.62
							C107.249,95.97,108.379,96.33,108.864,97.275z"/>
						<path id="XMLID_732_" style="fill:#263238;" d="M123.165,98.6l-3.001-2.311c0.612-0.859,1.78-1.038,2.608-0.4
							C123.602,96.526,123.777,97.74,123.165,98.6z"/>
					</g>
					<g id="XMLID_552_">
						<g id="XMLID_704_">
							<path style="fill:#263238;" d="M93.74,86.805c0,0-3.538,0.493-4.835,3.16c-1.128,2.319-0.72,7.919,0.784,14.021
								c1.504,6.102,2.921,9.778,3.805,11.467c0.884,1.688,2.701,2.163,2.701,2.163l-0.177-7.241l-0.262-5.045
								c0,0,3.239-4.422,3.595-8.047c0.458-4.665-0.524-6.574-0.524-6.574L93.74,86.805z"/>
							<path id="XMLID_720_" style="fill:#263238;" d="M99.453,93.812c0.024,7.467,6.097,13.501,13.564,13.477
								c7.467-0.024,13.065-6.15,13.04-13.617c-0.024-7.467-5.661-13.448-13.128-13.424C105.463,80.271,99.429,86.344,99.453,93.812
								z"/>
							<path id="XMLID_715_" style="fill:#FFA8A7;" d="M95.947,104.524c-1.217,1.055-2.207-1.676-3.231-2.741
								c-1.024-1.064-4.36-2.513-6.011,0.994c-1.682,3.574,1.456,8.6,4.022,9.586c2.782,1.069,4.357-1.335,4.357-1.335v16.046
								c3.848,6.932,10.64,6.719,14.265,6.329c3.625-0.39,4.423-4.162,1.772-7.204l-0.029-4.962c0,0,4.098,0.608,6.094,0.293
								c3.323-0.525,5.059-3.031,6.056-6.633c1.601-5.785,2.244-15.506,0.02-26.737c-3.722-2.878-16.626-2.402-24.435,2.548
								C99.398,100.67,97.163,103.469,95.947,104.524z"/>
							<path style="fill:#263238;" d="M123.878,82.492c0.501-2.081,0.727-4.229,0.671-6.368c-0.022-0.848-0.206-1.866-0.994-2.179
								c-0.764-0.304-1.568,0.257-2.249,0.717c-2.876,1.943-6.461,2.49-9.926,2.68c-5.982,0.328-15.175-0.062-18.225,6.506
								c-0.846,1.821-0.991,3.74,0.681,4.999c1.427,1.074,3.255,1.56,4.99,1.862c3.031,0.527,6.037,1.195,9.088,1.6
								c3.108,0.412,6.732,0.816,9.787-0.126c2.565-0.791,5.174-1.472,7.09-3.515c1.645-1.753,2.6-4.136,2.622-6.539
								c0.003-0.342-0.078-0.772-0.41-0.854c-0.167-0.041-0.339,0.028-0.498,0.095C125.63,81.744,124.754,82.118,123.878,82.492z"/>
							<path id="XMLID_710_" style="fill:#F28F8F;" d="M111.092,121.237c0,0-7.425-1.471-10.024-2.841
								c-1.74-0.918-3.175-2.513-3.598-3.537c0,0,0.493,2.2,2.051,4.178c1.905,2.419,11.577,4.174,11.577,4.174L111.092,121.237z"/>
						</g>
						<g id="XMLID_561_">
							<path id="XMLID_694_" style="fill:#263238;" d="M109.599,102.195c0.003,0.956-0.74,1.731-1.66,1.731
								c-0.92,0.001-1.668-0.774-1.671-1.73c-0.003-0.956,0.74-1.731,1.66-1.732C108.847,100.465,109.595,101.239,109.599,102.195z"
								/>
							<path id="XMLID_654_" style="fill:#B16668;" d="M111.996,113.742c0.003,0.899-0.696,1.627-1.561,1.628
								c-0.865,0.001-1.569-0.728-1.572-1.626c-0.003-0.899,0.696-1.628,1.561-1.628
								C111.289,112.115,111.993,112.843,111.996,113.742z"/>
							<path id="XMLID_647_" style="fill:#263238;" d="M107.499,96.94l-3.444,2.169c-0.584-0.991-0.286-2.281,0.665-2.88
								C105.671,95.63,106.915,95.948,107.499,96.94z"/>
							<path id="XMLID_623_" style="fill:#263238;" d="M119.642,94.819l3.619,1.617c-0.412,1.024-1.556,1.492-2.556,1.046
								C119.705,97.035,119.23,95.843,119.642,94.819z"/>
							<path id="XMLID_603_" style="fill:#263238;" d="M121.55,101.691c0.003,0.924-0.715,1.673-1.604,1.673
								c-0.889,0-1.612-0.748-1.615-1.672c-0.003-0.923,0.715-1.673,1.604-1.673C120.824,100.018,121.547,100.767,121.55,101.691z"
								/>
							<polygon id="XMLID_578_" style="fill:#F28F8F;" points="113.372,98.869 113.965,109.986 119.237,108.59 							"/>
						</g>
					</g>
				</g>
			</g>
			<g>
				<path style="fill:#FFA8A7;" d="M19.971,144.671c1.729,0.934,8.778,5.888,12.607,6.317c1.621,0.182,2.061-0.079,1.997-0.502
					c-0.088-0.575-1.11-1.451-1.359-1.92c-0.433-0.814-3.01-4.215-2.014-5.981c0.996-1.766,1.866-0.071,4.254,2.257
					c2.388,2.328,4.819,3.133,6.907,5.852c2.087,2.719,2.786,7.012,6.244,10.109l13.786,9.404c0,0,6.419-29.791,9.235-33.299
					c2.959-3.686,15.877,4.352,13.177,16.079c-2.701,11.727-8.831,32.068-13.086,36.065c-2.753,2.586-8.567,0.144-15.819-6.306
					c-5.727-5.094-13.583-12.774-16.854-15.457c-3.271-2.683-10.226-4.17-13.399-6.039c-3.406-2.007-4.153-3.174-5.461-5.818
					c-1.232-2.491-0.682-6.479-1.412-7.985C18.044,145.94,18.242,143.737,19.971,144.671z"/>
				<path style="fill:#E0E0E0;" d="M82.322,129.087c4.414,2.766,4.638,6.787,4.858,11.382c0.202,4.231-0.649,10.069-2.518,15.839
					c-1.875,5.787-4.846,16.362-4.846,16.362s-11.54,0.267-17.478-4.863c0,0,2.708-11.394,4.62-19.962
					C68.87,139.277,71.195,130.058,82.322,129.087z"/>
				<path style="fill:#F28F8F;" d="M62.391,170.207c3.145,1.75,4.992,5.51,5.571,6.995c0,0-0.098-5.283-5.247-8.528L62.391,170.207z
					"/>
			</g>
		</g>
		<g id="Outlet">
			<polygon style="fill:#27DEBF;" points="182.111,386.344 259.29,430.904 259.29,447.32 182.111,402.761 			"/>
			<polygon style="opacity:0.35;" points="182.111,386.344 259.29,430.904 259.29,447.32 182.111,402.761 			"/>
			<polygon style="fill:#27DEBF;" points="336.469,386.344 259.29,430.904 259.29,447.32 336.469,402.761 			"/>
			<polygon style="opacity:0.2;" points="336.469,386.344 259.29,430.904 259.29,447.32 336.469,402.761 			"/>
			<polygon style="fill:#27DEBF;" points="336.469,386.344 259.289,341.785 182.111,386.344 259.29,430.904 			"/>
			<polygon style="opacity:0.15;" points="336.469,386.344 259.289,341.785 182.111,386.344 259.29,430.904 			"/>
			<polygon style="opacity:0.1;" points="259.29,430.904 259.29,426.213 190.234,386.344 182.111,386.344 			"/>
			<polygon style="opacity:0.1;" points="259.289,341.785 259.29,346.476 328.345,386.344 336.469,386.344 			"/>
			<polygon style="fill:#27DEBF;" points="336.469,386.344 328.345,386.344 259.29,426.213 259.29,430.904 			"/>
			<polygon style="fill:#27DEBF;" points="259.289,341.785 259.29,346.476 190.234,386.344 182.111,386.344 			"/>
			<path style="fill:#37474F;" d="M259.568,367.036l33.164,19.147c2.482,1.433,2.481,3.756,0,5.188l-24.735,14.281
				c-2.482,1.433-6.505,1.433-8.986,0l-33.164-19.147c-2.481-1.433-2.482-3.756,0-5.189l24.734-14.28
				C253.063,365.603,257.086,365.603,259.568,367.036z"/>
			<path style="fill:#455A64;" d="M267.998,405.652l23.917-13.809l-32.347-18.675c-2.482-1.433-6.505-1.433-8.987,0l-23.917,13.809
				l32.347,18.676C261.493,407.085,265.516,407.085,267.998,405.652z"/>
			<g>
				<path style="fill:#263238;" d="M239.545,386.372l14.507-8.376c0.478-0.276,1.254-0.277,1.733-0.002l1.785,1.025
					c0.479,0.275,0.48,0.722,0.001,0.998l-14.507,8.377c-0.478,0.276-1.254,0.277-1.733,0.002l-1.785-1.025
					C239.067,387.095,239.066,386.648,239.545,386.372z"/>
				<path style="fill:#263238;" d="M261.214,398.902l14.507-8.376c0.478-0.276,1.254-0.277,1.733-0.002l1.785,1.025
					c0.479,0.275,0.48,0.722,0.001,0.998l-14.507,8.377c-0.478,0.276-1.254,0.277-1.733,0.002l-1.785-1.025
					C260.737,399.625,260.736,399.178,261.214,398.902z"/>
			</g>
			<g>
				<path style="fill:#27DEBF;" d="M225.756,418.773c0-2.789-1.958-6.179-4.372-7.573c-1.208-0.698-2.299-0.759-3.09-0.3
					c-0.16,0.093-1.732,1.038-1.894,1.132c-0.788,0.457-1.277,1.431-1.277,2.821c0,2.788,1.958,6.179,4.372,7.573
					c1.21,0.699,2.302,0.76,3.093,0.299c0.159-0.092,1.724-1.035,1.885-1.127C225.264,421.143,225.756,420.168,225.756,418.773z"/>
				<path style="opacity:0.1;" d="M219.495,412.329c2.415,1.394,4.372,4.785,4.372,7.573c0,2.788-1.958,3.919-4.372,2.524
					c-2.415-1.394-4.372-4.785-4.372-7.573S217.08,410.935,219.495,412.329z"/>
			</g>
		</g>
		<g id="Cable">
			<path style="fill:#37474F;" d="M168.755,444.273c-5.035,0-10.071-1.133-13.995-3.398l-51.198-29.56
				c-4.115-2.376-6.381-5.655-6.381-9.233c0-3.577,2.267-6.855,6.381-9.231l59.322-34.25c6.499-3.752,11.99-13.263,11.99-20.768
				v-187.73c0-1.104,0.896-2,2-2c1.105,0,2,0.896,2,2v187.73c0,9.059-6.145,19.703-13.99,24.232l-59.322,34.25
				c-2.825,1.631-4.381,3.679-4.381,5.767c0,2.089,1.556,4.138,4.381,5.769l51.198,29.56c6.611,3.817,17.371,3.818,23.983,0.003
				l37.752-21.784c0.958-0.553,2.18-0.224,2.732,0.732c0.552,0.957,0.224,2.181-0.732,2.733l-37.752,21.784
				C178.821,443.141,173.789,444.273,168.755,444.273z"/>
		</g>
		<g id="Exclamation_Marks">
			<g>
				<path style="fill:#27DEBF;" d="M78.915,78.31c-0.055-0.283,0-0.547,0.167-0.794c0.167-0.245,0.392-0.395,0.674-0.45l4.869-0.938
					c0.284-0.055,0.548,0.002,0.792,0.166c0.247,0.168,0.397,0.393,0.452,0.676l0.751,3.902c0.055,0.284-0.001,0.549-0.169,0.793
					c-0.165,0.248-0.389,0.397-0.673,0.451l-4.869,0.938c-0.282,0.054-0.547-0.001-0.793-0.168c-0.246-0.165-0.395-0.39-0.45-0.674
					L78.915,78.31z M74.858,57.254c-0.054-0.282,0.001-0.547,0.167-0.792c0.167-0.247,0.392-0.397,0.674-0.452l4.869-0.938
					c0.284-0.055,0.548,0.002,0.793,0.168c0.248,0.167,0.397,0.392,0.452,0.674l3.208,16.653c0.055,0.283-0.001,0.548-0.168,0.793
					c-0.166,0.247-0.39,0.396-0.674,0.451l-4.869,0.938c-0.282,0.054-0.547-0.001-0.793-0.167c-0.247-0.166-0.396-0.391-0.451-0.674
					L74.858,57.254z"/>
			</g>
			<g>
				<path style="fill:#27DEBF;" d="M70.796,94.628c-0.193-0.214-0.281-0.47-0.265-0.767c0.018-0.298,0.132-0.541,0.347-0.732
					l3.693-3.308c0.216-0.193,0.472-0.281,0.766-0.264c0.298,0.017,0.542,0.131,0.734,0.345l2.652,2.961
					c0.193,0.216,0.281,0.47,0.263,0.767c-0.015,0.295-0.132,0.539-0.346,0.732l-3.693,3.308c-0.214,0.193-0.469,0.281-0.766,0.264
					c-0.296-0.015-0.54-0.131-0.733-0.346L70.796,94.628z M56.489,78.655c-0.192-0.214-0.28-0.47-0.264-0.767
					c0.017-0.297,0.131-0.541,0.345-0.732l3.694-3.308c0.216-0.193,0.472-0.281,0.767-0.264c0.298,0.015,0.541,0.131,0.733,0.346
					l11.314,12.633c0.193,0.214,0.282,0.469,0.263,0.767c-0.015,0.295-0.131,0.539-0.346,0.732l-3.694,3.308
					c-0.214,0.191-0.469,0.279-0.766,0.264c-0.295-0.017-0.539-0.132-0.732-0.347L56.489,78.655z"/>
			</g>
			<g style="opacity:0.6;">
				<path style="fill:#FFFFFF;" d="M70.796,94.628c-0.193-0.214-0.281-0.47-0.265-0.767c0.018-0.298,0.132-0.541,0.347-0.732
					l3.693-3.308c0.216-0.193,0.472-0.281,0.766-0.264c0.298,0.017,0.542,0.131,0.734,0.345l2.652,2.961
					c0.193,0.216,0.281,0.47,0.263,0.767c-0.015,0.295-0.132,0.539-0.346,0.732l-3.693,3.308c-0.214,0.193-0.469,0.281-0.766,0.264
					c-0.296-0.015-0.54-0.131-0.733-0.346L70.796,94.628z M56.489,78.655c-0.192-0.214-0.28-0.47-0.264-0.767
					c0.017-0.297,0.131-0.541,0.345-0.732l3.694-3.308c0.216-0.193,0.472-0.281,0.767-0.264c0.298,0.015,0.541,0.131,0.733,0.346
					l11.314,12.633c0.193,0.214,0.282,0.469,0.263,0.767c-0.015,0.295-0.131,0.539-0.346,0.732l-3.694,3.308
					c-0.214,0.191-0.469,0.279-0.766,0.264c-0.295-0.017-0.539-0.132-0.732-0.347L56.489,78.655z"/>
			</g>
		</g>
	</g>
</g>
<g id="_x34_04_Error">
	<g id="Text">
		<g>
			<path style="fill:#455A64;" d="M166.04,48.03c2.045,0,3.634,0.482,4.767,1.445c1.132,0.963,1.699,2.375,1.699,4.234
				c0,1.86-0.567,3.28-1.699,4.26c-1.133,0.98-2.722,1.471-4.767,1.471h-4.057v5.654c0,0.186-0.067,0.347-0.203,0.482
				c-0.135,0.135-0.296,0.203-0.482,0.203h-2.054c-0.187,0-0.347-0.067-0.481-0.203c-0.136-0.135-0.203-0.296-0.203-0.482V48.714
				c0-0.186,0.067-0.346,0.203-0.482c0.135-0.135,0.295-0.203,0.481-0.203H166.04z M161.984,56.27h3.93
				c0.964,0,1.732-0.19,2.308-0.57c0.574-0.38,0.862-1.043,0.862-1.991c0-0.946-0.288-1.601-0.862-1.965
				c-0.575-0.363-1.344-0.545-2.308-0.545h-3.93V56.27z"/>
			<path style="fill:#455A64;" d="M174.762,55.839c0.067-0.355,0.225-0.735,0.47-1.141c0.244-0.406,0.591-0.786,1.039-1.141
				c0.448-0.355,0.997-0.646,1.648-0.875c0.65-0.228,1.407-0.342,2.269-0.342c0.862,0,1.64,0.114,2.333,0.342
				c0.693,0.228,1.289,0.562,1.787,1.002c0.499,0.439,0.884,0.993,1.154,1.661c0.27,0.668,0.405,1.432,0.405,2.294v7.454
				c0,0.186-0.067,0.347-0.203,0.482c-0.135,0.135-0.296,0.203-0.481,0.203h-1.927c-0.187,0-0.347-0.067-0.481-0.203
				c-0.136-0.135-0.203-0.296-0.203-0.482v-0.837c-0.355,0.491-0.866,0.909-1.534,1.255c-0.668,0.346-1.518,0.52-2.548,0.52
				c-0.727,0-1.378-0.097-1.952-0.292c-0.575-0.194-1.057-0.469-1.445-0.824c-0.389-0.355-0.689-0.773-0.9-1.255
				c-0.211-0.482-0.316-1.01-0.316-1.585c0-1.167,0.414-2.079,1.242-2.738c0.828-0.659,1.936-1.107,3.321-1.344l4.133-0.71
				c0-0.693-0.228-1.183-0.685-1.471c-0.456-0.287-1.023-0.431-1.699-0.431c-0.422,0-0.752,0.059-0.988,0.177
				c-0.237,0.119-0.465,0.279-0.685,0.482c-0.152,0.135-0.292,0.228-0.418,0.279c-0.127,0.051-0.267,0.076-0.419,0.076h-2.357
				c-0.17,0-0.314-0.051-0.432-0.152C174.771,56.143,174.729,56.008,174.762,55.839z M178.997,62.989
				c0.574,0,1.086-0.08,1.534-0.241c0.447-0.161,0.824-0.376,1.128-0.646c0.305-0.271,0.533-0.575,0.685-0.913
				c0.152-0.338,0.228-0.684,0.228-1.039v-0.254l-3.448,0.609c-0.693,0.118-1.191,0.292-1.496,0.52
				c-0.304,0.228-0.456,0.537-0.456,0.925c0,0.355,0.182,0.617,0.545,0.786C178.08,62.904,178.506,62.989,178.997,62.989z"/>
			<path style="fill:#455A64;" d="M194.996,68.313c0.354,0,0.718-0.055,1.09-0.165c0.372-0.11,0.71-0.283,1.015-0.52
				c0.304-0.237,0.554-0.537,0.748-0.9c0.194-0.364,0.291-0.79,0.291-1.28V64.51c-0.135,0.152-0.313,0.317-0.532,0.494
				c-0.22,0.178-0.486,0.342-0.799,0.495c-0.313,0.152-0.676,0.279-1.09,0.38c-0.414,0.101-0.884,0.152-1.407,0.152
				c-0.846,0-1.61-0.165-2.295-0.494c-0.685-0.33-1.268-0.769-1.749-1.318c-0.482-0.549-0.862-1.183-1.141-1.902
				c-0.279-0.718-0.436-1.466-0.47-2.244c-0.017-0.253-0.025-0.549-0.025-0.888c0-0.338,0.009-0.634,0.025-0.887
				c0.034-0.777,0.191-1.525,0.47-2.244c0.278-0.718,0.659-1.352,1.141-1.902c0.481-0.549,1.064-0.989,1.749-1.318
				c0.685-0.33,1.449-0.494,2.295-0.494c0.523,0,0.993,0.05,1.407,0.152c0.414,0.102,0.777,0.228,1.09,0.38
				c0.313,0.152,0.579,0.317,0.799,0.495c0.22,0.177,0.397,0.342,0.532,0.494v-0.583c0-0.186,0.067-0.346,0.203-0.482
				c0.135-0.135,0.296-0.203,0.481-0.203h1.927c0.186,0,0.347,0.068,0.482,0.203c0.135,0.136,0.202,0.296,0.202,0.482V65.17
				c0,2.045-0.57,3.587-1.711,4.627c-1.141,1.04-2.717,1.56-4.729,1.56c-0.862,0-1.661-0.114-2.396-0.342
				c-0.734-0.229-1.373-0.533-1.914-0.913c-0.541-0.38-0.972-0.811-1.293-1.293c-0.321-0.481-0.499-0.976-0.532-1.483
				c-0.017-0.186,0.046-0.346,0.19-0.481c0.144-0.136,0.308-0.203,0.494-0.203h1.724c0.237,0,0.439,0.08,0.609,0.241
				c0.168,0.16,0.313,0.308,0.431,0.443c0.22,0.288,0.52,0.524,0.9,0.71C193.588,68.22,194.184,68.313,194.996,68.313z
				 M191.953,58.476c-0.05,0.474-0.05,0.947,0,1.42c0.102,1.099,0.439,1.889,1.015,2.371c0.574,0.482,1.276,0.723,2.104,0.723
				c0.828,0,1.525-0.245,2.092-0.735c0.565-0.49,0.892-1.191,0.976-2.104c0.034-0.254,0.051-0.575,0.051-0.964
				c0-0.389-0.017-0.71-0.051-0.963c-0.084-0.878-0.41-1.572-0.976-2.079c-0.566-0.507-1.264-0.76-2.092-0.76
				c-0.828,0-1.53,0.241-2.104,0.722C192.392,56.587,192.054,57.377,191.953,58.476z"/>
			<path style="fill:#455A64;" d="M204.274,59.186c0-0.946,0.144-1.838,0.432-2.675c0.287-0.836,0.701-1.563,1.242-2.18
				c0.541-0.617,1.195-1.103,1.965-1.458c0.769-0.355,1.627-0.532,2.573-0.532c0.946,0,1.805,0.173,2.573,0.52
				c0.77,0.347,1.424,0.811,1.966,1.394c0.54,0.583,0.959,1.268,1.255,2.054c0.295,0.786,0.443,1.61,0.443,2.472v1.141
				c0,0.187-0.067,0.347-0.203,0.482c-0.135,0.135-0.296,0.203-0.481,0.203h-8.468c0,0.389,0.079,0.731,0.24,1.027
				c0.16,0.296,0.376,0.545,0.646,0.748c0.27,0.203,0.583,0.355,0.938,0.456c0.355,0.101,0.718,0.152,1.09,0.152
				c0.541,0,0.98-0.055,1.318-0.165c0.338-0.11,0.617-0.25,0.837-0.418c0.186-0.135,0.338-0.228,0.456-0.279
				c0.118-0.051,0.279-0.076,0.482-0.076h2.028c0.186,0,0.351,0.068,0.494,0.203c0.144,0.136,0.207,0.296,0.19,0.482
				c-0.018,0.237-0.148,0.541-0.394,0.913c-0.245,0.372-0.612,0.735-1.102,1.09c-0.49,0.355-1.095,0.659-1.813,0.913
				c-0.719,0.254-1.552,0.38-2.498,0.38c-0.946,0-1.805-0.165-2.573-0.494c-0.77-0.33-1.424-0.799-1.965-1.407
				c-0.541-0.608-0.955-1.331-1.242-2.168C204.417,61.125,204.274,60.2,204.274,59.186z M210.486,55.383
				c-0.49,0-0.908,0.072-1.255,0.215c-0.347,0.143-0.638,0.33-0.875,0.558c-0.236,0.229-0.418,0.482-0.545,0.761
				c-0.127,0.279-0.207,0.545-0.24,0.799h5.729c-0.034-0.254-0.098-0.52-0.19-0.799c-0.093-0.279-0.245-0.532-0.456-0.761
				c-0.212-0.228-0.49-0.414-0.837-0.558C211.47,55.455,211.027,55.383,210.486,55.383z"/>
			<path style="fill:#455A64;" d="M237.64,65.093c0,0.186-0.067,0.347-0.202,0.482c-0.136,0.135-0.297,0.203-0.482,0.203h-1.927
				c-0.186,0-0.347-0.067-0.481-0.203c-0.136-0.135-0.203-0.296-0.203-0.482v-6.44c0-1.014-0.237-1.826-0.71-2.434
				c-0.474-0.608-1.2-0.913-2.181-0.913c-0.895,0-1.602,0.304-2.117,0.913c-0.516,0.608-0.772,1.42-0.772,2.434v6.44
				c0,0.186-0.068,0.347-0.203,0.482c-0.136,0.135-0.296,0.203-0.481,0.203h-1.928c-0.186,0-0.347-0.067-0.482-0.203
				c-0.136-0.135-0.203-0.296-0.203-0.482V53.278c0-0.186,0.067-0.346,0.203-0.482c0.135-0.135,0.296-0.203,0.482-0.203h1.928
				c0.186,0,0.346,0.068,0.481,0.203c0.135,0.136,0.203,0.296,0.203,0.482v0.583c0.438-0.439,0.954-0.803,1.546-1.09
				c0.592-0.287,1.293-0.431,2.104-0.431c1.031,0,1.893,0.161,2.586,0.481c0.693,0.321,1.251,0.752,1.674,1.293
				c0.422,0.542,0.723,1.171,0.9,1.889c0.177,0.719,0.266,1.475,0.266,2.269V65.093z"/>
			<path style="fill:#455A64;" d="M246.819,52.34c0.93,0,1.77,0.143,2.522,0.431c0.752,0.288,1.403,0.685,1.952,1.192
				c0.55,0.507,0.989,1.099,1.318,1.775c0.33,0.676,0.52,1.403,0.571,2.18c0.017,0.152,0.024,0.347,0.024,0.583
				c0,0.237,0,0.474,0,0.71c0,0.237,0,0.469,0,0.697c0,0.229-0.008,0.418-0.024,0.571c-0.068,0.777-0.263,1.504-0.584,2.18
				c-0.321,0.676-0.756,1.264-1.306,1.762c-0.549,0.498-1.2,0.892-1.952,1.179c-0.752,0.287-1.593,0.431-2.522,0.431
				c-0.93,0-1.771-0.144-2.522-0.431c-0.753-0.288-1.403-0.681-1.953-1.179c-0.549-0.499-0.984-1.086-1.306-1.762
				c-0.321-0.676-0.516-1.403-0.583-2.18c-0.017-0.152-0.029-0.342-0.038-0.571c-0.009-0.228-0.013-0.46-0.013-0.697
				c0-0.236,0.004-0.473,0.013-0.71c0.009-0.236,0.021-0.431,0.038-0.583c0.051-0.777,0.241-1.504,0.57-2.18
				c0.33-0.676,0.77-1.268,1.318-1.775c0.55-0.507,1.2-0.904,1.953-1.192C245.048,52.484,245.889,52.34,246.819,52.34z
				 M249.886,58.045c-0.051-0.524-0.173-0.959-0.367-1.306c-0.194-0.347-0.436-0.622-0.723-0.824
				c-0.288-0.203-0.601-0.342-0.939-0.418c-0.338-0.076-0.685-0.114-1.039-0.114c-0.355,0-0.702,0.038-1.04,0.114
				c-0.338,0.076-0.65,0.216-0.938,0.418c-0.288,0.203-0.528,0.478-0.723,0.824c-0.194,0.347-0.317,0.782-0.368,1.306
				c-0.017,0.135-0.029,0.304-0.038,0.507c-0.008,0.203-0.013,0.415-0.013,0.634c0,0.22,0.005,0.436,0.013,0.646
				c0.009,0.212,0.021,0.376,0.038,0.495c0.051,0.524,0.174,0.96,0.368,1.306c0.194,0.347,0.435,0.621,0.723,0.824
				c0.287,0.203,0.6,0.342,0.938,0.418c0.338,0.076,0.685,0.114,1.04,0.114c0.354,0,0.701-0.038,1.039-0.114
				c0.338-0.076,0.65-0.216,0.939-0.418c0.287-0.203,0.528-0.478,0.723-0.824c0.194-0.346,0.316-0.782,0.367-1.306
				c0.017-0.118,0.025-0.283,0.025-0.495c0-0.211,0-0.426,0-0.646c0-0.219,0-0.431,0-0.634
				C249.912,58.349,249.903,58.18,249.886,58.045z"/>
			<path style="fill:#455A64;" d="M260.382,61.011c0,0.524,0.14,0.942,0.418,1.255c0.279,0.313,0.799,0.469,1.56,0.469h1.547
				c0.186,0,0.346,0.068,0.482,0.203c0.135,0.136,0.203,0.296,0.203,0.482v1.673c0,0.186-0.068,0.347-0.203,0.482
				c-0.136,0.135-0.296,0.203-0.482,0.203h-1.877c-1.589,0-2.81-0.384-3.663-1.154c-0.853-0.769-1.28-1.948-1.28-3.537v-5.451
				h-1.674c-0.186,0-0.347-0.067-0.481-0.203c-0.136-0.135-0.203-0.295-0.203-0.481v-1.673c0-0.186,0.067-0.346,0.203-0.482
				c0.135-0.135,0.296-0.203,0.481-0.203h1.674v-4.133c0-0.186,0.067-0.346,0.202-0.482c0.136-0.135,0.296-0.203,0.482-0.203h1.927
				c0.186,0,0.346,0.068,0.482,0.203c0.136,0.136,0.203,0.296,0.203,0.482v4.133h3.271c0.186,0,0.347,0.068,0.482,0.203
				c0.136,0.136,0.203,0.296,0.203,0.482v1.673c0,0.186-0.067,0.347-0.203,0.481c-0.135,0.136-0.296,0.203-0.482,0.203h-3.271
				V61.011z"/>
			<path style="fill:#455A64;" d="M276.99,52.594h3.525c0.186,0,0.346,0.068,0.481,0.203c0.135,0.136,0.203,0.296,0.203,0.482v1.673
				c0,0.186-0.068,0.347-0.203,0.481c-0.136,0.136-0.296,0.203-0.481,0.203h-3.525v9.457c0,0.186-0.068,0.347-0.203,0.482
				c-0.136,0.135-0.296,0.203-0.481,0.203h-1.927c-0.186,0-0.347-0.067-0.482-0.203c-0.135-0.135-0.202-0.296-0.202-0.482v-9.457
				h-1.674c-0.185,0-0.347-0.067-0.481-0.203c-0.136-0.135-0.203-0.295-0.203-0.481v-1.673c0-0.186,0.067-0.346,0.203-0.482
				c0.135-0.135,0.296-0.203,0.481-0.203h1.674v-1.141c0-0.811,0.118-1.5,0.355-2.066c0.236-0.566,0.574-1.027,1.015-1.382
				c0.439-0.355,0.967-0.608,1.584-0.76c0.617-0.152,1.306-0.229,2.066-0.229h2.054c0.187,0,0.347,0.068,0.482,0.203
				c0.135,0.135,0.202,0.296,0.202,0.481v1.673c0,0.187-0.067,0.347-0.202,0.482c-0.136,0.135-0.296,0.203-0.482,0.203h-1.8
				c-0.643,0-1.133,0.114-1.471,0.342c-0.338,0.229-0.507,0.664-0.507,1.306V52.594z"/>
			<path style="fill:#455A64;" d="M288.957,52.34c0.93,0,1.77,0.143,2.522,0.431c0.752,0.288,1.403,0.685,1.952,1.192
				c0.55,0.507,0.989,1.099,1.318,1.775c0.33,0.676,0.52,1.403,0.571,2.18c0.017,0.152,0.024,0.347,0.024,0.583
				c0,0.237,0,0.474,0,0.71c0,0.237,0,0.469,0,0.697c0,0.229-0.008,0.418-0.024,0.571c-0.068,0.777-0.263,1.504-0.584,2.18
				c-0.321,0.676-0.756,1.264-1.306,1.762c-0.549,0.498-1.2,0.892-1.952,1.179c-0.752,0.287-1.593,0.431-2.522,0.431
				c-0.93,0-1.771-0.144-2.522-0.431c-0.753-0.288-1.403-0.681-1.953-1.179c-0.549-0.499-0.984-1.086-1.306-1.762
				c-0.321-0.676-0.516-1.403-0.583-2.18c-0.017-0.152-0.029-0.342-0.038-0.571c-0.009-0.228-0.013-0.46-0.013-0.697
				c0-0.236,0.004-0.473,0.013-0.71c0.009-0.236,0.022-0.431,0.038-0.583c0.051-0.777,0.241-1.504,0.57-2.18
				c0.33-0.676,0.77-1.268,1.318-1.775c0.55-0.507,1.2-0.904,1.953-1.192C287.186,52.484,288.027,52.34,288.957,52.34z
				 M292.024,58.045c-0.051-0.524-0.173-0.959-0.367-1.306c-0.194-0.347-0.436-0.622-0.723-0.824
				c-0.288-0.203-0.601-0.342-0.939-0.418c-0.338-0.076-0.685-0.114-1.039-0.114c-0.355,0-0.702,0.038-1.04,0.114
				c-0.338,0.076-0.65,0.216-0.938,0.418c-0.288,0.203-0.528,0.478-0.723,0.824c-0.194,0.347-0.317,0.782-0.368,1.306
				c-0.017,0.135-0.029,0.304-0.038,0.507c-0.008,0.203-0.013,0.415-0.013,0.634c0,0.22,0.005,0.436,0.013,0.646
				c0.009,0.212,0.022,0.376,0.038,0.495c0.051,0.524,0.174,0.96,0.368,1.306c0.194,0.347,0.435,0.621,0.723,0.824
				c0.287,0.203,0.6,0.342,0.938,0.418c0.338,0.076,0.685,0.114,1.04,0.114c0.354,0,0.701-0.038,1.039-0.114
				c0.338-0.076,0.65-0.216,0.939-0.418c0.287-0.203,0.528-0.478,0.723-0.824c0.194-0.346,0.316-0.782,0.367-1.306
				c0.017-0.118,0.025-0.283,0.025-0.495c0-0.211,0-0.426,0-0.646c0-0.219,0-0.431,0-0.634
				C292.049,58.349,292.04,58.18,292.024,58.045z"/>
			<path style="fill:#455A64;" d="M298.11,53.278c0-0.186,0.067-0.346,0.202-0.482c0.136-0.135,0.296-0.203,0.482-0.203h1.927
				c0.186,0,0.346,0.068,0.481,0.203c0.135,0.136,0.203,0.296,0.203,0.482v6.44c0,1.014,0.215,1.825,0.646,2.434
				c0.431,0.608,1.137,0.913,2.117,0.913c0.896,0,1.58-0.304,2.054-0.913c0.473-0.609,0.71-1.42,0.71-2.434v-6.44
				c0-0.186,0.067-0.346,0.202-0.482c0.136-0.135,0.296-0.203,0.483-0.203h1.927c0.186,0,0.346,0.068,0.482,0.203
				c0.135,0.136,0.203,0.296,0.203,0.482v11.815c0,0.186-0.068,0.347-0.203,0.482c-0.136,0.135-0.296,0.203-0.482,0.203h-1.927
				c-0.187,0-0.347-0.067-0.483-0.203c-0.135-0.135-0.202-0.296-0.202-0.482V64.51c-0.39,0.389-0.871,0.739-1.445,1.052
				c-0.575,0.313-1.268,0.469-2.079,0.469c-1.031,0-1.885-0.161-2.561-0.482c-0.677-0.321-1.218-0.752-1.623-1.293
				c-0.405-0.541-0.693-1.17-0.862-1.889c-0.169-0.718-0.253-1.475-0.253-2.269V53.278z"/>
			<path style="fill:#455A64;" d="M326.1,65.093c0,0.186-0.067,0.347-0.202,0.482c-0.136,0.135-0.297,0.203-0.482,0.203h-1.927
				c-0.187,0-0.347-0.067-0.482-0.203c-0.136-0.135-0.203-0.296-0.203-0.482v-6.44c0-1.014-0.237-1.826-0.71-2.434
				c-0.474-0.608-1.2-0.913-2.181-0.913c-0.896,0-1.602,0.304-2.117,0.913c-0.516,0.608-0.772,1.42-0.772,2.434v6.44
				c0,0.186-0.068,0.347-0.203,0.482c-0.136,0.135-0.296,0.203-0.482,0.203h-1.928c-0.185,0-0.347-0.067-0.481-0.203
				c-0.136-0.135-0.203-0.296-0.203-0.482V53.278c0-0.186,0.067-0.346,0.203-0.482c0.135-0.135,0.296-0.203,0.481-0.203h1.928
				c0.186,0,0.346,0.068,0.482,0.203c0.135,0.136,0.203,0.296,0.203,0.482v0.583c0.439-0.439,0.954-0.803,1.546-1.09
				c0.592-0.287,1.293-0.431,2.104-0.431c1.031,0,1.893,0.161,2.586,0.481c0.693,0.321,1.251,0.752,1.674,1.293
				c0.422,0.542,0.723,1.171,0.9,1.889c0.177,0.719,0.266,1.475,0.266,2.269V65.093z"/>
			<path style="fill:#455A64;" d="M334.543,52.34c0.523,0,0.993,0.05,1.407,0.152c0.414,0.102,0.777,0.228,1.09,0.38
				c0.313,0.152,0.579,0.317,0.799,0.495c0.22,0.177,0.397,0.342,0.532,0.494v-5.4c0-0.186,0.067-0.346,0.203-0.482
				c0.135-0.135,0.296-0.203,0.482-0.203h1.927c0.186,0,0.347,0.068,0.482,0.203c0.135,0.136,0.202,0.296,0.202,0.482v16.632
				c0,0.186-0.067,0.347-0.202,0.482c-0.136,0.135-0.296,0.203-0.482,0.203h-1.927c-0.186,0-0.347-0.067-0.482-0.203
				c-0.136-0.135-0.203-0.296-0.203-0.482V64.51c-0.135,0.152-0.313,0.317-0.532,0.494c-0.22,0.178-0.486,0.342-0.799,0.495
				c-0.313,0.152-0.676,0.279-1.09,0.38c-0.414,0.101-0.884,0.152-1.407,0.152c-0.846,0-1.61-0.165-2.295-0.494
				c-0.685-0.33-1.268-0.769-1.749-1.318c-0.481-0.549-0.862-1.183-1.141-1.902c-0.279-0.718-0.436-1.466-0.47-2.244
				c-0.017-0.253-0.025-0.549-0.025-0.888c0-0.338,0.009-0.634,0.025-0.887c0.034-0.777,0.19-1.525,0.47-2.244
				c0.278-0.718,0.659-1.352,1.141-1.902c0.482-0.549,1.064-0.989,1.749-1.318C332.932,52.505,333.697,52.34,334.543,52.34z
				 M332.184,58.476c-0.05,0.474-0.05,0.947,0,1.42c0.102,1.099,0.439,1.889,1.015,2.371c0.574,0.482,1.276,0.723,2.104,0.723
				s1.525-0.245,2.092-0.735c0.565-0.49,0.892-1.191,0.976-2.104c0.034-0.254,0.051-0.575,0.051-0.964
				c0-0.389-0.017-0.71-0.051-0.963c-0.084-0.878-0.41-1.572-0.976-2.079c-0.566-0.507-1.264-0.76-2.092-0.76
				s-1.53,0.241-2.104,0.722C332.624,56.587,332.286,57.377,332.184,58.476z"/>
		</g>
		<g>
			<path style="fill:#27DEBF;" d="M196.436,90.761c0.171,0,0.317,0.063,0.441,0.186c0.124,0.124,0.187,0.271,0.187,0.441v2.463
				c0,0.171-0.063,0.318-0.187,0.441c-0.124,0.124-0.27,0.186-0.441,0.186h-11.015c-0.171,0-0.317-0.062-0.441-0.186
				c-0.124-0.124-0.186-0.271-0.186-0.441V78.84c0-0.171,0.061-0.317,0.186-0.441c0.124-0.124,0.271-0.186,0.441-0.186h10.829
				c0.17,0,0.317,0.062,0.441,0.186c0.124,0.124,0.186,0.271,0.186,0.441v2.463c0,0.17-0.061,0.317-0.186,0.441
				c-0.124,0.124-0.271,0.186-0.441,0.186h-7.157v2.51h6.645c0.171,0,0.317,0.062,0.442,0.186c0.123,0.124,0.186,0.271,0.186,0.441
				v2.463c0,0.171-0.063,0.318-0.186,0.441c-0.125,0.124-0.271,0.186-0.442,0.186h-6.645v2.603H196.436z"/>
			<path style="fill:#27DEBF;" d="M206.661,78.213c1.023,0,1.937,0.108,2.742,0.325c0.805,0.217,1.49,0.542,2.057,0.976
				c0.565,0.434,0.999,0.988,1.301,1.662c0.303,0.674,0.453,1.461,0.453,2.358c0,1.162-0.24,2.126-0.72,2.894
				c-0.48,0.767-1.162,1.351-2.045,1.754l2.881,5.53c0.047,0.093,0.07,0.179,0.07,0.256c0,0.14-0.051,0.26-0.151,0.36
				c-0.101,0.101-0.221,0.151-0.36,0.151h-3.16c-0.311,0-0.531-0.07-0.662-0.209c-0.132-0.14-0.236-0.279-0.314-0.418l-2.579-4.973
				h-2.138v4.973c0,0.171-0.063,0.318-0.186,0.441c-0.125,0.124-0.271,0.186-0.442,0.186h-3.044c-0.171,0-0.317-0.062-0.441-0.186
				c-0.124-0.124-0.186-0.271-0.186-0.441V78.84c0-0.171,0.062-0.317,0.186-0.441c0.124-0.124,0.27-0.186,0.441-0.186H206.661z
				 M204.035,85.254h2.626c0.65,0,1.189-0.123,1.615-0.371c0.426-0.248,0.639-0.697,0.639-1.348c0-0.65-0.213-1.1-0.639-1.348
				c-0.427-0.248-0.965-0.372-1.615-0.372h-2.626V85.254z"/>
			<path style="fill:#27DEBF;" d="M222.811,78.213c1.022,0,1.937,0.108,2.742,0.325c0.805,0.217,1.49,0.542,2.057,0.976
				c0.565,0.434,0.999,0.988,1.301,1.662c0.303,0.674,0.453,1.461,0.453,2.358c0,1.162-0.24,2.126-0.72,2.894
				c-0.48,0.767-1.162,1.351-2.045,1.754l2.881,5.53c0.047,0.093,0.07,0.179,0.07,0.256c0,0.14-0.051,0.26-0.151,0.36
				c-0.101,0.101-0.221,0.151-0.36,0.151h-3.16c-0.311,0-0.531-0.07-0.662-0.209c-0.132-0.14-0.236-0.279-0.314-0.418l-2.579-4.973
				h-2.138v4.973c0,0.171-0.063,0.318-0.186,0.441c-0.125,0.124-0.271,0.186-0.442,0.186h-3.044c-0.171,0-0.317-0.062-0.441-0.186
				c-0.124-0.124-0.186-0.271-0.186-0.441V78.84c0-0.171,0.061-0.317,0.186-0.441c0.124-0.124,0.271-0.186,0.441-0.186H222.811z
				 M220.185,85.254h2.626c0.65,0,1.188-0.123,1.615-0.371c0.426-0.248,0.639-0.697,0.639-1.348c0-0.65-0.213-1.1-0.639-1.348
				c-0.427-0.248-0.965-0.372-1.615-0.372h-2.626V85.254z"/>
			<path style="fill:#27DEBF;" d="M231.501,84.278c0.047-0.867,0.236-1.685,0.569-2.452c0.333-0.767,0.806-1.433,1.418-1.998
				c0.611-0.565,1.355-1.015,2.23-1.348c0.875-0.333,1.886-0.5,3.033-0.5c1.13,0,2.138,0.167,3.021,0.5
				c0.883,0.333,1.631,0.783,2.242,1.348c0.612,0.565,1.085,1.231,1.418,1.998c0.333,0.767,0.522,1.584,0.569,2.452
				c0.031,0.666,0.046,1.364,0.046,2.092c0,0.728-0.015,1.41-0.046,2.045c-0.047,0.868-0.236,1.685-0.569,2.452
				c-0.333,0.767-0.806,1.437-1.418,2.01c-0.611,0.573-1.359,1.022-2.242,1.348c-0.883,0.326-1.891,0.488-3.021,0.488
				c-1.147,0-2.158-0.163-3.033-0.488c-0.875-0.325-1.619-0.774-2.23-1.348c-0.612-0.573-1.085-1.243-1.418-2.01
				c-0.333-0.767-0.523-1.584-0.569-2.452c-0.031-0.635-0.046-1.317-0.046-2.045C231.456,85.642,231.47,84.944,231.501,84.278z
				 M241.704,88.298c0.015-0.279,0.03-0.589,0.046-0.93c0.016-0.34,0.023-0.689,0.023-1.046c0-0.356-0.008-0.701-0.023-1.034
				c-0.016-0.333-0.031-0.631-0.046-0.895c-0.031-0.387-0.113-0.744-0.244-1.069c-0.132-0.325-0.317-0.608-0.558-0.848
				c-0.24-0.24-0.539-0.43-0.895-0.569c-0.356-0.139-0.775-0.209-1.255-0.209c-0.48,0-0.899,0.07-1.255,0.209
				c-0.357,0.14-0.655,0.33-0.895,0.569c-0.241,0.24-0.427,0.523-0.559,0.848c-0.132,0.325-0.213,0.682-0.243,1.069
				c-0.031,0.264-0.051,0.562-0.059,0.895c-0.008,0.333-0.012,0.678-0.012,1.034c0,0.357,0.004,0.705,0.012,1.046
				c0.008,0.341,0.027,0.651,0.059,0.93c0.061,0.775,0.328,1.417,0.802,1.929c0.472,0.511,1.189,0.767,2.149,0.767
				c0.96,0,1.673-0.255,2.138-0.767C241.355,89.716,241.626,89.073,241.704,88.298z"/>
			<path style="fill:#27DEBF;" d="M255.646,78.213c1.022,0,1.936,0.108,2.742,0.325c0.805,0.217,1.49,0.542,2.057,0.976
				c0.565,0.434,0.999,0.988,1.301,1.662c0.303,0.674,0.453,1.461,0.453,2.358c0,1.162-0.24,2.126-0.72,2.894
				c-0.48,0.767-1.162,1.351-2.045,1.754l2.881,5.53c0.047,0.093,0.07,0.179,0.07,0.256c0,0.14-0.051,0.26-0.151,0.36
				c-0.101,0.101-0.221,0.151-0.36,0.151h-3.16c-0.311,0-0.531-0.07-0.662-0.209c-0.132-0.14-0.236-0.279-0.315-0.418l-2.579-4.973
				h-2.138v4.973c0,0.171-0.063,0.318-0.186,0.441c-0.125,0.124-0.271,0.186-0.442,0.186h-3.044c-0.171,0-0.317-0.062-0.441-0.186
				c-0.124-0.124-0.185-0.271-0.185-0.441V78.84c0-0.171,0.061-0.317,0.185-0.441c0.124-0.124,0.271-0.186,0.441-0.186H255.646z
				 M253.02,85.254h2.626c0.65,0,1.189-0.123,1.615-0.371c0.426-0.248,0.639-0.697,0.639-1.348c0-0.65-0.213-1.1-0.639-1.348
				c-0.427-0.248-0.965-0.372-1.615-0.372h-2.626V85.254z"/>
			<path style="fill:#27DEBF;" d="M277.465,94.479c-0.17,0-0.317-0.062-0.441-0.186c-0.124-0.124-0.185-0.271-0.185-0.441v-2.37
				h-7.32c-0.171,0-0.317-0.062-0.441-0.186c-0.124-0.124-0.186-0.271-0.186-0.441v-2.463c0-0.403,0.101-0.736,0.302-0.999
				l6.948-8.761c0.14-0.17,0.268-0.283,0.384-0.337s0.274-0.082,0.476-0.082h3.51c0.17,0,0.316,0.062,0.441,0.186
				c0.123,0.124,0.186,0.271,0.186,0.441v8.923h1.998c0.171,0,0.317,0.062,0.442,0.186c0.123,0.124,0.186,0.271,0.186,0.441v2.463
				c0,0.17-0.063,0.317-0.186,0.441c-0.125,0.124-0.272,0.186-0.442,0.186h-1.998v2.37c0,0.171-0.063,0.318-0.186,0.441
				c-0.125,0.124-0.271,0.186-0.441,0.186H277.465z M276.955,87.764v-4.276l-3.393,4.276H276.955z"/>
			<path style="fill:#27DEBF;" d="M292.5,77.98c1.162,0,2.161,0.171,2.997,0.511c0.837,0.341,1.53,0.798,2.08,1.371
				c0.55,0.573,0.961,1.243,1.232,2.01c0.271,0.767,0.43,1.568,0.477,2.405c0.031,0.666,0.047,1.364,0.047,2.092
				c0,0.728-0.016,1.41-0.047,2.045c-0.047,0.836-0.205,1.638-0.477,2.405c-0.271,0.767-0.682,1.438-1.232,2.01
				c-0.55,0.573-1.243,1.03-2.08,1.371c-0.836,0.34-1.835,0.511-2.997,0.511c-1.162,0-2.161-0.171-2.998-0.511
				c-0.837-0.341-1.53-0.798-2.08-1.371c-0.55-0.573-0.96-1.243-1.232-2.01c-0.271-0.767-0.43-1.568-0.477-2.405
				c-0.031-0.635-0.046-1.317-0.046-2.045c0-0.728,0.015-1.425,0.046-2.092c0.047-0.837,0.205-1.638,0.477-2.405
				c0.272-0.767,0.682-1.437,1.232-2.01c0.55-0.573,1.243-1.03,2.08-1.371C290.339,78.151,291.338,77.98,292.5,77.98z
				 M294.987,88.298c0.062-1.317,0.062-2.618,0-3.904c-0.031-0.387-0.09-0.744-0.175-1.069c-0.085-0.325-0.221-0.608-0.406-0.848
				c-0.186-0.24-0.434-0.43-0.743-0.569c-0.311-0.139-0.697-0.209-1.162-0.209c-0.465,0-0.853,0.07-1.162,0.209
				c-0.311,0.14-0.558,0.33-0.744,0.569c-0.186,0.24-0.325,0.523-0.418,0.848c-0.093,0.325-0.147,0.682-0.162,1.069
				c-0.078,1.286-0.078,2.587,0,3.904c0.015,0.387,0.065,0.744,0.15,1.069c0.085,0.325,0.225,0.608,0.419,0.848
				c0.193,0.24,0.444,0.43,0.755,0.569c0.309,0.14,0.697,0.209,1.162,0.209c0.465,0,0.852-0.069,1.162-0.209
				c0.31-0.14,0.561-0.329,0.755-0.569c0.193-0.24,0.333-0.523,0.418-0.848C294.92,89.042,294.971,88.686,294.987,88.298z"/>
			<path style="fill:#27DEBF;" d="M309.789,94.479c-0.17,0-0.317-0.062-0.441-0.186c-0.124-0.124-0.186-0.271-0.186-0.441v-2.37
				h-7.32c-0.171,0-0.317-0.062-0.441-0.186s-0.186-0.271-0.186-0.441v-2.463c0-0.403,0.101-0.736,0.302-0.999l6.948-8.761
				c0.14-0.17,0.268-0.283,0.384-0.337c0.116-0.054,0.274-0.082,0.476-0.082h3.51c0.17,0,0.316,0.062,0.441,0.186
				c0.123,0.124,0.185,0.271,0.185,0.441v8.923h1.998c0.171,0,0.317,0.062,0.442,0.186c0.123,0.124,0.185,0.271,0.185,0.441v2.463
				c0,0.17-0.063,0.317-0.185,0.441c-0.125,0.124-0.272,0.186-0.442,0.186h-1.998v2.37c0,0.171-0.063,0.318-0.185,0.441
				c-0.125,0.124-0.272,0.186-0.441,0.186H309.789z M309.278,87.764v-4.276l-3.393,4.276H309.278z"/>
		</g>
	</g>
</g>
</svg>
